<?xml version="1.0" standalone="no"?>
<!DOCTYPE svg PUBLIC "-//W3C//DTD SVG 20010904//EN"
 "http://www.w3.org/TR/2001/REC-SVG-20010904/DTD/svg10.dtd">
<svg version="1.0" xmlns="http://www.w3.org/2000/svg"
 width="300.000000pt" height="311.000000pt" viewBox="0 0 300.000000 311.000000"
 preserveAspectRatio="xMidYMid meet">
<metadata>
Created by potrace 1.10, written by Peter Selinger 2001-2011
</metadata>
<g transform="translate(0.000000,311.000000) scale(0.100000,-0.100000)"
fill="#000000" stroke="none">
<path d="M642 2898 c-17 -17 -17 -1739 0 -1756 14 -14 617 -16 703 -2 39 6 23
8 -80 9 -71 1 -238 4 -370 6 l-240 4 -5 813 c-3 447 -3 835 0 862 4 39 9 50
25 54 11 2 462 6 1002 8 926 3 984 2 992 -15 9 -16 16 -500 8 -491 -3 3 -8
106 -12 230 -3 124 -9 227 -11 229 -2 2 -4 -370 -4 -827 l0 -832 -986 0 c-629
0 -983 -3 -979 -10 4 -6 366 -9 979 -10 920 0 974 1 989 18 14 15 16 79 17
601 0 322 2 587 5 589 3 3 5 -270 5 -606 l0 -612 -252 -1 c-139 0 -294 0 -344
1 -50 1 -104 -2 -120 -6 -29 -8 -29 -8 11 -15 74 -12 695 -11 711 2 12 10 14
145 14 878 0 661 -3 870 -12 879 -17 17 -2029 17 -2046 0z"/>
<path d="M692 2865 c8 -8 247 -9 255 -1 3 3 -54 6 -127 6 -73 0 -131 -2 -128
-5z"/>
<path d="M962 2865 c8 -8 1654 -12 1675 -4 10 4 -364 8 -831 8 -467 1 -847 -1
-844 -4z"/>
<path d="M672 2750 c0 -19 2 -27 5 -17 2 9 2 25 0 35 -3 9 -5 1 -5 -18z"/>
<path d="M800 2740 c-7 -14 -7 -20 0 -20 5 0 10 6 10 14 0 8 8 17 18 19 16 4
16 5 0 6 -10 0 -22 -8 -28 -19z"/>
<path d="M1805 2750 l700 -5 3 -715 c2 -665 1 -716 -15 -728 -13 -9 -193 -12
-835 -12 -450 0 -824 3 -833 6 -13 5 -15 45 -15 292 0 157 -2 283 -5 280 -8
-7 -8 -566 0 -578 4 -7 286 -10 849 -10 699 0 845 2 855 14 8 9 10 211 9 737
l-3 724 -705 0 -705 0 700 -5z"/>
<path d="M1658 2713 l-818 -3 0 -690 0 -690 820 0 820 0 0 695 c0 382 -1 694
-2 693 -2 -2 -371 -4 -820 -5z m801 -688 l-2 -675 -797 0 -796 0 -3 47 c-1 26
-5 51 -8 56 -3 6 -1 7 5 3 9 -5 10 0 4 16 -4 13 -9 294 -11 626 l-3 602 806 0
806 0 -1 -675z"/>
<path d="M68 2649 c-17 -9 -18 -66 -18 -974 0 -863 2 -965 16 -979 13 -13 45
-16 198 -16 128 0 186 4 194 12 17 17 17 1939 0 1956 -15 15 -365 16 -390 1z
m369 -17 c14 -9 20 -274 13 -572 -4 -161 -5 -159 -10 95 l-6 260 -3 -355 c-2
-195 -4 -572 -4 -837 l-1 -483 -161 -1 c-114 -1 -147 -4 -115 -10 73 -12 264
-11 278 3 7 7 12 40 12 80 0 39 4 68 10 68 12 0 8 -148 -4 -168 -11 -17 -349
-17 -364 1 -9 11 -19 715 -12 837 2 19 2 44 2 55 -3 249 -1 1019 3 1025 7 12
344 13 362 2z m14 -814 c2 -26 0 -50 -4 -54 -4 -4 -7 19 -7 51 0 69 7 70 11 3z
m5 -498 c1 -247 -1 -422 -7 -426 -5 -3 -9 168 -9 427 0 238 3 429 6 426 4 -4
8 -196 10 -427z"/>
<path d="M235 2490 c-35 -38 17 -94 53 -58 18 18 14 56 -7 68 -26 13 -25 13
-46 -10z m45 -13 c0 -14 -20 -37 -32 -37 -4 0 -8 11 -8 25 0 18 5 25 20 25 11
0 20 -6 20 -13z"/>
<path d="M232 2364 c-34 -24 -27 -83 11 -104 27 -14 29 -14 53 13 30 35 30 52
-1 82 -28 29 -33 30 -63 9z m56 -16 c24 -24 8 -78 -24 -78 -17 0 -44 28 -44
45 0 17 27 45 44 45 6 0 17 -5 24 -12z"/>
<path d="M176 1852 c-2 -4 -1 -14 4 -22 7 -11 12 -12 21 -3 6 6 8 16 5 22 -8
13 -23 14 -30 3z"/>
<path d="M124 1819 c-10 -17 13 -36 27 -22 12 12 4 33 -11 33 -5 0 -12 -5 -16
-11z"/>
<path d="M177 1785 c-8 -18 11 -31 25 -17 11 11 3 32 -12 32 -4 0 -10 -7 -13
-15z"/>
<path d="M125 1751 c-7 -12 12 -24 25 -16 11 7 4 25 -10 25 -5 0 -11 -4 -15
-9z"/>
<path d="M176 1722 c-2 -4 -1 -14 4 -22 7 -11 12 -12 21 -3 6 6 8 16 5 22 -8
13 -23 14 -30 3z"/>
<path d="M124 1689 c-10 -17 13 -36 27 -22 12 12 4 33 -11 33 -5 0 -12 -5 -16
-11z"/>
<path d="M174 1659 c-10 -17 13 -36 27 -22 12 12 4 33 -11 33 -5 0 -12 -5 -16
-11z"/>
<path d="M125 1621 c-3 -5 -1 -12 5 -16 12 -7 30 2 30 16 0 12 -27 12 -35 0z"/>
<path d="M94 1430 c0 -107 2 -151 3 -97 2 53 2 141 0 195 -1 53 -3 9 -3 -98z"/>
<path d="M175 1590 c-3 -6 1 -13 10 -16 19 -8 30 0 20 15 -8 14 -22 14 -30 1z"/>
<path d="M124 1559 c-10 -17 13 -36 27 -22 12 12 4 33 -11 33 -5 0 -12 -5 -16
-11z"/>
<path d="M174 1529 c-10 -17 13 -36 27 -22 12 12 4 33 -11 33 -5 0 -12 -5 -16
-11z"/>
<path d="M127 1495 c-8 -18 11 -31 25 -17 11 11 3 32 -12 32 -4 0 -10 -7 -13
-15z"/>
<path d="M175 1461 c-3 -5 -1 -12 5 -16 12 -7 30 2 30 16 0 12 -27 12 -35 0z"/>
<path d="M126 1432 c-2 -4 -1 -14 4 -22 7 -11 12 -12 21 -3 6 6 8 16 5 22 -8
13 -23 14 -30 3z"/>
<path d="M174 1399 c-10 -17 13 -36 27 -22 12 12 4 33 -11 33 -5 0 -12 -5 -16
-11z"/>
<path d="M124 1369 c-10 -17 13 -36 27 -22 12 12 4 33 -11 33 -5 0 -12 -5 -16
-11z"/>
<path d="M177 1335 c-8 -18 11 -31 25 -17 11 11 3 32 -12 32 -4 0 -10 -7 -13
-15z"/>
<path d="M125 1300 c-3 -6 1 -13 10 -16 19 -8 30 0 20 15 -8 14 -22 14 -30 1z"/>
<path d="M174 1269 c-10 -17 13 -36 27 -22 12 12 4 33 -11 33 -5 0 -12 -5 -16
-11z"/>
<path d="M124 1239 c-10 -17 13 -36 27 -22 12 12 4 33 -11 33 -5 0 -12 -5 -16
-11z"/>
<path d="M94 985 c0 -137 2 -195 3 -128 2 67 2 179 0 250 -1 70 -3 16 -3 -122z"/>
<path d="M174 1209 c-10 -17 13 -36 27 -22 12 12 4 33 -11 33 -5 0 -12 -5 -16
-11z"/>
<path d="M125 1171 c-7 -12 12 -24 25 -16 11 7 4 25 -10 25 -5 0 -11 -4 -15
-9z"/>
<path d="M176 1142 c-2 -4 -1 -14 4 -22 7 -11 12 -12 21 -3 6 6 8 16 5 22 -8
13 -23 14 -30 3z"/>
<path d="M124 1109 c-10 -17 13 -36 27 -22 12 12 4 33 -11 33 -5 0 -12 -5 -16
-11z"/>
<path d="M174 1079 c-10 -17 13 -36 27 -22 12 12 4 33 -11 33 -5 0 -12 -5 -16
-11z"/>
<path d="M127 1045 c-8 -18 11 -31 25 -17 11 11 3 32 -12 32 -4 0 -10 -7 -13
-15z"/>
<path d="M175 1011 c-3 -5 -1 -12 5 -16 12 -7 30 2 30 16 0 12 -27 12 -35 0z"/>
<path d="M124 979 c-10 -17 13 -36 27 -22 12 12 4 33 -11 33 -5 0 -12 -5 -16
-11z"/>
<path d="M174 949 c-10 -17 13 -36 27 -22 12 12 4 33 -11 33 -5 0 -12 -5 -16
-11z"/>
<path d="M263 935 c-3 -9 -3 -19 1 -22 3 -3 1 -12 -5 -19 -16 -19 6 -26 72
-22 l54 3 0 35 c0 32 -3 35 -30 37 -25 2 -27 1 -10 -7 15 -7 9 -9 -28 -9 -30
-1 -46 3 -42 9 3 6 4 10 0 10 -3 0 -8 -7 -12 -15z m102 -35 c0 -11 -13 -15
-50 -17 -38 -1 -44 0 -25 7 14 4 18 9 10 10 -10 1 -9 4 5 9 31 12 60 8 60 -9z"/>
<path d="M124 919 c-10 -17 13 -36 27 -22 12 12 4 33 -11 33 -5 0 -12 -5 -16
-11z"/>
<path d="M175 881 c-3 -5 -1 -12 5 -16 12 -7 30 2 30 16 0 12 -27 12 -35 0z"/>
<path d="M126 852 c-2 -4 -1 -14 4 -22 7 -11 12 -12 21 -3 6 6 8 16 5 22 -8
13 -23 14 -30 3z"/>
<path d="M255 830 c-3 -5 -1 -10 4 -10 13 0 10 -22 -4 -32 -6 -5 -5 -12 3 -20
12 -12 23 -5 34 24 5 11 71 13 75 2 2 -6 -14 -15 -34 -21 l-38 -11 45 1 c44 2
45 2 45 37 l0 35 -50 2 c-45 1 -47 0 -15 -7 l35 -7 -37 -2 c-21 0 -38 4 -38 9
0 6 -4 10 -9 10 -6 0 -13 -4 -16 -10z"/>
<path d="M174 819 c-10 -17 13 -36 27 -22 12 12 4 33 -11 33 -5 0 -12 -5 -16
-11z"/>
<path d="M124 789 c-10 -17 13 -36 27 -22 12 12 4 33 -11 33 -5 0 -12 -5 -16
-11z"/>
<path d="M669 2618 c-7 -14 -5 -1418 2 -1418 5 0 9 284 9 710 0 607 -2 725
-11 708z"/>
<path d="M799 2448 c-5 -17 -4 -50 3 -54 4 -3 8 9 8 25 0 17 -2 31 -5 31 -3 0
-5 -1 -6 -2z"/>
<path d="M804 2130 c0 -140 2 -198 3 -127 2 70 2 184 0 255 -1 70 -3 12 -3
-128z"/>
<path d="M1710 1140 c-19 -6 -12 -8 32 -9 31 -1 60 4 63 9 7 12 -58 12 -95 0z"/>
<path d="M1815 1120 c-3 -5 -1 -10 4 -10 6 0 11 5 11 10 0 6 -2 10 -4 10 -3 0
-8 -4 -11 -10z"/>
<path d="M1273 1091 c-138 -48 -240 -125 -287 -218 -19 -38 -22 -163 -4 -181
18 -18 94 -15 171 8 259 74 744 74 1002 0 73 -21 170 -27 180 -11 3 6 6 46 8
89 2 77 1 81 -36 134 -41 60 -90 99 -182 146 -74 37 -166 65 -177 54 -5 -5 17
-17 49 -26 136 -40 269 -127 306 -201 8 -16 16 -63 19 -103 l4 -73 -66 4 c-36
2 -121 17 -190 33 -123 28 -130 29 -415 28 -283 0 -293 -1 -415 -29 -69 -16
-154 -29 -190 -29 l-65 -1 4 65 c2 36 10 78 18 95 20 38 119 135 138 135 8 0
15 4 15 9 0 10 56 35 153 66 40 13 63 25 54 28 -8 3 -50 -7 -94 -22z"/>
<path d="M1813 1023 l0 -68 -89 -6 c-98 -6 -87 -13 16 -9 36 1 71 7 78 12 14
12 17 138 3 138 -4 0 -8 -30 -8 -67z"/>
<path d="M1330 1040 c-13 -8 -12 -10 3 -10 9 0 17 5 17 10 0 12 -1 12 -20 0z"/>
<path d="M1850 990 c0 -46 -4 -61 -17 -68 -25 -13 -216 -21 -287 -13 -37 5
-63 14 -71 24 -17 23 -28 22 -16 -2 17 -31 67 -41 203 -41 90 0 139 4 163 14
35 15 35 15 35 80 0 37 -2 66 -5 66 -3 0 -5 -27 -5 -60z"/>
<path d="M1260 1020 c0 -5 5 -10 11 -10 5 0 7 5 4 10 -3 6 -8 10 -11 10 -2 0
-4 -4 -4 -10z"/>
<path d="M1217 1001 c-41 -26 -46 -36 -10 -17 17 9 35 20 38 26 8 13 6 12 -28
-9z"/>
<path d="M2090 996 c0 -3 9 -10 20 -16 11 -6 20 -8 20 -6 0 3 -9 10 -20 16
-11 6 -20 8 -20 6z"/>
<path d="M2160 986 c0 -3 9 -10 20 -16 11 -6 20 -8 20 -6 0 3 -9 10 -20 16
-11 6 -20 8 -20 6z"/>
<path d="M1089 913 c-28 -26 -55 -56 -61 -68 -5 -11 2 -6 16 12 15 17 45 48
69 67 23 20 38 36 34 36 -4 0 -31 -21 -58 -47z"/>
<path d="M2171 947 c2 -1 13 -9 24 -17 19 -14 19 -14 6 3 -7 9 -18 17 -24 17
-6 0 -8 -1 -6 -3z"/>
<path d="M2248 908 c32 -34 52 -82 52 -125 0 -30 -28 -30 -154 2 -280 71 -748
69 -998 -5 -36 -11 -79 -21 -95 -21 -22 -1 -24 -3 -6 -6 12 -2 68 7 125 21
153 36 272 49 473 49 206 0 336 -14 484 -49 57 -14 120 -24 140 -22 34 3 36 5
39 44 2 32 -4 50 -30 89 -18 27 -40 51 -48 53 -8 3 0 -11 18 -30z"/>
<path d="M1012 790 c0 -14 2 -19 5 -12 2 6 2 18 0 25 -3 6 -5 1 -5 -13z"/>
<path d="M667 571 c-30 -27 -59 -71 -209 -315 -58 -96 -64 -145 -21 -173 26
-17 95 -18 1219 -18 l1193 0 28 21 c53 40 46 62 -84 273 -111 180 -121 193
-167 216 l-50 25 -938 0 -937 0 -34 -29z m1881 5 c2 -3 10 -2 17 0 7 3 31 -4
53 -15 30 -15 51 -39 84 -93 25 -40 69 -111 98 -158 102 -163 105 -168 86
-189 -10 -10 -31 -21 -47 -25 -54 -11 -2354 -7 -2383 4 -15 5 -29 17 -32 25
-7 17 25 84 82 173 75 115 89 137 94 142 4 3 14 21 23 40 22 45 46 73 77 88
18 9 139 13 440 15 514 3 1402 -2 1408 -7z"/>
<path d="M1968 553 c7 -3 16 -2 19 1 4 3 -2 6 -13 5 -11 0 -14 -3 -6 -6z"/>
<path d="M2123 553 c71 -2 183 -2 250 0 67 1 10 3 -128 3 -137 0 -192 -2 -122
-3z"/>
<path d="M2518 553 c6 -2 18 -2 25 0 6 3 1 5 -13 5 -14 0 -19 -2 -12 -5z"/>
<path d="M2560 553 c0 -5 17 -15 38 -24 34 -14 51 -37 141 -182 91 -148 121
-191 121 -173 0 8 -175 287 -200 319 -22 27 -100 74 -100 60z"/>
<path d="M1344 499 c-2 -4 47 -7 108 -8 62 -1 110 0 108 3 -8 7 -211 12 -216
5z"/>
<path d="M1895 500 l-200 -6 255 -1 c140 0 248 1 240 3 -36 8 -108 9 -295 4z"/>
<path d="M2285 500 c-3 -5 -1 -10 4 -10 6 0 11 5 11 10 0 6 -2 10 -4 10 -3 0
-8 -4 -11 -10z"/>
<path d="M2440 500 l-135 -4 135 -6 c74 -3 -141 -7 -479 -8 -338 -1 -611 -5
-607 -9 4 -4 284 -8 622 -9 587 -1 614 -1 614 17 0 10 -3 19 -7 21 -5 2 -69 1
-143 -2z"/>
<path d="M720 483 c0 -12 3 -14 8 -6 4 6 34 14 67 16 l60 3 -67 2 c-59 2 -68
0 -68 -15z"/>
<path d="M1598 493 c17 -2 47 -2 65 0 17 2 3 4 -33 4 -36 0 -50 -2 -32 -4z"/>
<path d="M670 390 c0 -20 7 -20 984 -20 979 0 984 0 979 20 -5 20 -14 20 -984
20 -972 0 -979 0 -979 -20z m1025 0 c77 -3 -120 -7 -437 -8 -379 -1 -578 2
-578 8 0 11 750 10 1015 0z m653 4 c-7 -7 -189 -6 -196 1 -3 3 41 5 98 5 57 0
101 -3 98 -6z m68 -3 c-5 -8 -56 -3 -56 5 0 2 14 4 31 4 16 0 28 -4 25 -9z"/>
<path d="M620 296 l0 -21 1032 0 c1026 0 1033 0 1033 20 0 20 -7 20 -647 22
-398 2 -649 -1 -653 -7 -4 -6 59 -10 161 -9 92 0 169 -3 172 -6 3 -3 -242 -5
-544 -4 -302 0 -543 3 -536 6 17 7 15 20 -3 20 -9 0 -15 -9 -15 -21z m1158 -3
c-10 -2 -26 -2 -35 0 -10 3 -2 5 17 5 19 0 27 -2 18 -5z m459 0 c-81 -2 -213
-2 -295 0 -81 1 -14 3 148 3 162 0 229 -2 147 -3z m180 1 c-3 -3 -12 -4 -19
-1 -8 3 -5 6 6 6 11 1 17 -2 13 -5z m126 -1 c-18 -2 -48 -2 -65 0 -18 2 -4 4
32 4 36 0 50 -2 33 -4z"/>
<path d="M728 309 c-7 -5 79 -9 191 -8 112 0 200 3 196 7 -10 10 -371 11 -387
1z"/>
<path d="M1134 308 c-3 -4 50 -8 117 -8 67 0 120 2 118 4 -8 9 -230 12 -235 4z"/>
<path d="M477 209 c-16 -21 -25 -39 -20 -39 9 0 56 70 51 75 -2 2 -16 -14 -31
-36z"/>
<path d="M577 200 c5 -20 14 -20 1082 -20 1070 0 1077 0 1077 20 0 20 -7 20
-1082 20 -1077 0 -1082 0 -1077 -20z m1510 4 c-11 -12 -1497 -16 -1497 -5 0 8
226 11 752 11 413 0 749 -3 745 -6z m96 -1 c-7 -2 -19 -2 -25 0 -7 3 -2 5 12
5 14 0 19 -2 13 -5z m125 0 c-10 -2 -26 -2 -35 0 -10 3 -2 5 17 5 19 0 27 -2
18 -5z m92 3 c0 -2 -7 -6 -15 -10 -8 -3 -15 -1 -15 4 0 6 7 10 15 10 8 0 15
-2 15 -4z m223 -3 c-29 -2 -77 -2 -105 0 -29 2 -6 3 52 3 58 0 81 -1 53 -3z"/>
<path d="M2839 156 c-2 -3 -519 -8 -1149 -11 -630 -4 -1147 -9 -1150 -11 -2
-3 514 -3 1147 -2 905 2 1155 6 1165 16 7 7 8 12 2 12 -6 0 -13 -2 -15 -4z"/>
<path d="M478 143 c6 -2 18 -2 25 0 6 3 1 5 -13 5 -14 0 -19 -2 -12 -5z"/>
</g>
</svg>
