<?xml version="1.0" standalone="no"?>
<!DOCTYPE svg PUBLIC "-//W3C//DTD SVG 20010904//EN"
 "http://www.w3.org/TR/2001/REC-SVG-20010904/DTD/svg10.dtd">
<svg version="1.0" xmlns="http://www.w3.org/2000/svg"
 width="300.000000pt" height="207.000000pt" viewBox="0 0 300.000000 207.000000"
 preserveAspectRatio="xMidYMid meet">
<metadata>
Created by potrace 1.10, written by Peter Selinger 2001-2011
</metadata>
<g transform="translate(0.000000,207.000000) scale(0.100000,-0.100000)"
fill="#000000" stroke="none">
<path d="M2735 1759 c-269 -96 -920 -342 -933 -352 -7 -6 -11 -16 -8 -24 3 -8
2 -12 -3 -8 -5 3 -11 0 -13 -6 -4 -11 -116 42 -197 93 -25 15 -52 28 -61 28
-9 0 -33 9 -55 20 -52 27 -104 26 -146 -3 -19 -12 -59 -33 -89 -46 -30 -13
-64 -30 -75 -37 -18 -12 -30 -11 -85 6 -36 11 -263 77 -505 145 -242 69 -450
130 -462 135 l-23 10 0 -555 c0 -305 2 -555 4 -555 2 0 66 -22 142 -49 77 -26
262 -88 412 -136 245 -78 276 -86 302 -75 16 6 36 20 46 31 23 26 28 24 47
-16 12 -25 25 -37 46 -41 20 -4 31 -14 35 -30 4 -13 24 -36 46 -50 37 -25 45
-26 93 -18 l52 10 56 -48 c31 -26 63 -48 72 -48 23 0 67 40 67 60 0 16 5 18
29 14 38 -8 77 28 86 80 5 26 12 36 26 36 52 0 89 41 89 99 0 27 3 28 40 27
58 -1 81 26 89 106 6 58 7 61 20 40 9 -18 18 -22 36 -18 41 10 364 44 620 66
138 11 277 23 310 26 l60 5 0 565 c0 495 -2 564 -15 563 -8 0 -78 -23 -155
-50z m151 15 c-6 -15 -9 -1011 -3 -1058 2 -19 -15 -21 -318 -47 -314 -27 -582
-54 -638 -65 -27 -6 -28 -5 -17 16 20 37 24 308 6 480 -19 195 -43 272 -89
289 -13 5 52 34 213 95 403 152 822 304 844 306 4 0 5 -7 2 -16z m-2306 -220
c261 -75 492 -141 513 -146 21 -6 42 -19 48 -30 9 -17 7 -192 -5 -390 -9 -145
-56 -385 -93 -477 -38 -93 -86 -151 -126 -151 -14 0 -154 43 -313 95 -533 174
-515 167 -508 187 8 25 7 1025 -1 1038 -3 5 -2 10 2 10 5 0 222 -61 483 -136z
m871 -55 c14 -7 11 -14 -20 -47 -20 -21 -69 -60 -109 -86 -66 -42 -76 -53
-102 -109 -16 -35 -31 -80 -35 -100 -13 -70 -20 -45 -20 71 0 65 -4 131 -8
148 -8 31 -7 31 70 67 43 20 94 46 113 57 35 20 72 20 111 -1z m183 -85 c117
-60 132 -65 171 -60 42 7 43 7 59 -33 24 -62 46 -277 46 -461 0 -160 -8 -208
-35 -217 -5 -1 -34 41 -62 95 -110 204 -127 229 -209 314 -46 48 -84 95 -84
103 0 9 -6 15 -12 12 -7 -2 -21 0 -31 5 -13 6 -25 3 -44 -11 -14 -12 -31 -21
-37 -21 -6 0 -28 -27 -50 -60 -40 -63 -120 -130 -155 -130 -11 0 -28 11 -36
24 -19 28 -13 62 20 121 12 22 25 54 28 70 3 17 17 56 31 87 22 50 34 63 88
95 34 21 83 59 109 86 26 26 54 47 62 47 7 0 71 -30 141 -66z m-120 -283 c5
-9 43 -50 83 -92 58 -60 93 -110 161 -230 85 -151 87 -155 86 -219 -1 -75 -14
-107 -49 -116 -38 -9 -60 3 -85 49 -18 32 -87 136 -117 176 -2 2 -5 2 -8 -1
-4 -4 60 -108 121 -197 22 -31 12 -109 -17 -133 -32 -27 -66 -23 -85 9 -50 84
-127 193 -132 188 -3 -3 13 -32 36 -64 23 -33 55 -83 72 -111 28 -48 30 -55
19 -93 -12 -47 -32 -67 -65 -67 -17 0 -31 16 -60 67 -46 84 -86 143 -98 143
-4 0 0 -12 10 -27 10 -16 39 -63 65 -106 53 -86 54 -108 6 -137 l-30 -19 -47
42 c-45 40 -46 42 -26 52 26 14 26 63 0 103 -13 19 -18 41 -16 72 4 55 -17 79
-75 87 -36 5 -39 8 -35 32 6 45 -14 81 -45 81 -28 0 -28 0 -25 59 3 49 0 63
-16 76 -18 16 -18 21 -6 98 8 45 14 85 14 89 0 3 13 1 29 -5 26 -9 34 -7 80
28 29 20 68 61 87 89 60 90 140 126 168 77z m-369 -412 c10 -45 -3 -97 -26
-110 -12 -6 -22 -9 -24 -7 -2 2 1 26 7 53 5 28 12 60 14 73 6 32 21 27 29 -9z
m755 -89 c0 -5 -5 -10 -11 -10 -5 0 -7 5 -4 10 3 6 8 10 11 10 2 0 4 -4 4 -10z
m-703 -28 c12 -7 17 -38 15 -79 -1 -13 -13 -30 -27 -39 -30 -20 -156 -67 -162
-60 -2 2 7 26 20 53 13 26 27 60 30 74 5 20 17 30 54 42 57 19 55 19 70 9z
m111 -128 c22 -15 30 -58 14 -79 -4 -6 -57 -23 -118 -39 -94 -24 -114 -26
-132 -15 -18 11 -47 58 -40 64 2 1 28 10 58 20 30 10 75 29 100 41 53 28 87
30 118 8z m48 -167 c16 -47 8 -53 -82 -62 -77 -7 -105 1 -136 39 -25 30 -23
32 25 45 23 6 65 18 92 25 61 17 82 7 101 -47z"/>
</g>
</svg>
