<?xml version="1.0" standalone="no"?>
<!DOCTYPE svg PUBLIC "-//W3C//DTD SVG 20010904//EN"
 "http://www.w3.org/TR/2001/REC-SVG-20010904/DTD/svg10.dtd">
<svg version="1.0" xmlns="http://www.w3.org/2000/svg"
 width="300.000000pt" height="307.000000pt" viewBox="0 0 300.000000 307.000000"
 preserveAspectRatio="xMidYMid meet">
<metadata>
Created by potrace 1.10, written by Peter Selinger 2001-2011
</metadata>
<g transform="translate(0.000000,307.000000) scale(0.100000,-0.100000)"
fill="#000000" stroke="none">
<path d="M1375 2944 c-16 -2 -65 -9 -109 -15 -425 -57 -844 -353 -1044 -738
-62 -117 -87 -180 -119 -291 -87 -308 -64 -650 62 -945 75 -175 153 -291 285
-429 211 -219 451 -351 760 -417 147 -31 400 -32 546 -1 300 64 528 186 739
397 360 359 502 867 379 1356 -158 625 -702 1063 -1349 1084 -66 2 -133 1
-150 -1z m431 -77 c412 -104 736 -362 924 -736 94 -188 141 -394 141 -616 0
-308 -94 -593 -277 -835 -445 -589 -1271 -729 -1884 -319 -309 207 -530 544
-597 912 -23 126 -23 362 0 487 49 265 176 513 364 711 203 212 475 359 768
414 59 11 130 13 270 11 162 -4 205 -8 291 -29z"/>
<path d="M1003 2273 c-185 -102 -138 -543 57 -543 132 0 217 231 153 415 -41
119 -129 172 -210 128z m116 -31 c14 -10 39 -42 55 -71 25 -47 29 -66 32 -151
3 -90 1 -102 -26 -158 -27 -58 -72 -103 -107 -108 -39 -6 -89 26 -120 79 -37
63 -48 142 -33 247 21 146 116 224 199 162z"/>
<path d="M1839 2268 c-22 -15 -46 -47 -69 -93 -32 -64 -35 -77 -35 -160 0
-114 22 -181 79 -241 38 -39 48 -44 87 -44 106 0 179 112 179 275 0 203 -125
339 -241 263z m145 -43 c84 -84 92 -321 14 -420 -97 -124 -241 -1 -240 205 0
196 126 315 226 215z"/>
<path d="M628 1159 c-17 -9 -16 -14 8 -62 47 -92 125 -196 204 -270 371 -347
950 -337 1311 22 68 68 149 182 183 259 17 37 18 45 5 53 -25 16 -33 10 -69
-53 -44 -76 -164 -205 -246 -264 -236 -168 -559 -217 -834 -125 -148 50 -262
121 -372 235 -59 60 -148 183 -148 205 0 14 -19 14 -42 0z m161 -213 c95 -102
321 -246 386 -246 13 0 26 -4 29 -9 9 -14 163 -39 261 -42 195 -5 386 50 546
157 100 67 157 120 221 207 28 37 53 66 55 63 10 -9 -97 -153 -158 -214 -126
-124 -268 -200 -464 -250 -30 -8 -304 -8 -350 0 -126 21 -281 91 -398 180 -71
53 -175 169 -214 239 -33 58 -28 59 13 3 21 -27 53 -66 73 -88z"/>
</g>
</svg>
