<?xml version="1.0" standalone="no"?>
<!DOCTYPE svg PUBLIC "-//W3C//DTD SVG 20010904//EN"
 "http://www.w3.org/TR/2001/REC-SVG-20010904/DTD/svg10.dtd">
<svg version="1.0" xmlns="http://www.w3.org/2000/svg"
 width="300.000000pt" height="295.000000pt" viewBox="0 0 300.000000 295.000000"
 preserveAspectRatio="xMidYMid meet">
<metadata>
Created by potrace 1.10, written by Peter Selinger 2001-2011
</metadata>
<g transform="translate(0.000000,295.000000) scale(0.100000,-0.100000)"
fill="#000000" stroke="none">
<path d="M687 2750 c-200 -23 -356 -61 -418 -103 -99 -66 -150 -226 -171 -535
-19 -282 13 -652 72 -831 42 -125 83 -165 201 -191 l56 -13 11 -116 c17 -179
60 -288 154 -383 66 -69 151 -112 253 -129 81 -14 121 -8 130 21 9 29 -3 44
-73 91 -98 65 -185 158 -227 242 -30 60 -37 87 -42 161 l-6 89 39 -7 c21 -3
152 -9 290 -13 l250 -6 13 -86 c18 -127 56 -235 100 -281 39 -42 73 -54 211
-76 96 -16 514 -38 575 -30 22 3 105 6 185 8 l144 3 -3 -55 c-1 -30 -11 -74
-21 -98 -26 -59 -111 -144 -197 -199 -68 -43 -74 -50 -71 -78 3 -29 4 -30 63
-33 75 -4 172 26 238 74 95 69 154 188 164 331 6 80 7 84 32 89 116 26 140 39
170 90 62 104 95 307 95 584 0 354 -50 518 -178 576 -98 44 -302 73 -533 75
l-130 1 -6 146 c-13 320 -78 532 -180 584 -62 31 -157 56 -307 79 -112 18
-191 22 -470 24 -184 2 -370 0 -413 -5z m638 -30 c310 -21 512 -64 573 -123
36 -35 45 -62 10 -30 -70 64 -140 84 -418 119 -143 17 -591 27 -720 14 -47 -4
-116 -11 -155 -15 -38 -3 -86 -10 -105 -15 -19 -4 -60 -13 -90 -20 -69 -14
-155 -55 -180 -88 -11 -13 -20 -20 -20 -15 0 30 90 97 145 109 6 1 37 9 70 17
56 15 136 27 280 45 104 12 444 14 610 2z m50 -50 c234 -20 406 -53 479 -93
98 -55 148 -281 149 -667 1 -370 -44 -624 -124 -699 -79 -73 -603 -118 -1068
-92 -164 10 -215 10 -221 1 -14 -23 -19 -146 -9 -215 10 -71 51 -174 90 -223
33 -43 97 -110 121 -126 39 -28 14 -25 -48 4 -86 42 -145 98 -187 178 -46 87
-58 139 -66 287 l-6 119 -89 23 c-105 27 -130 41 -150 85 -24 52 -54 173 -73
298 -26 166 -26 616 0 745 41 210 82 274 199 313 76 24 212 49 343 61 130 12
520 12 660 1z m862 -784 c253 -10 445 -44 520 -93 13 -9 31 -30 40 -47 l16
-31 -38 37 c-66 66 -188 93 -483 110 -167 9 -217 9 -233 0 -17 -11 -19 -9 -19
18 0 26 3 29 18 22 9 -5 90 -12 179 -16z m279 -71 c248 -39 282 -71 320 -305
45 -276 -14 -755 -98 -802 -13 -6 -57 -19 -98 -28 l-75 -16 -6 -90 c-10 -140
-35 -216 -93 -283 -23 -26 -137 -104 -143 -97 -2 2 20 28 50 57 77 78 108 148
114 257 3 48 1 98 -4 111 l-10 24 -419 2 c-271 1 -444 6 -489 13 -111 19 -188
41 -208 60 -29 25 -54 91 -72 185 -9 45 -18 92 -20 104 -5 20 -1 21 93 28 369
24 528 62 581 140 60 88 106 296 117 523 3 70 7 132 9 137 4 14 327 0 451 -20z
m-589 -608 c-28 -48 -73 -74 -159 -95 -82 -21 -244 -41 -388 -48 -62 -4 -114
-11 -127 -20 -18 -11 -23 -11 -33 1 -10 12 -40 15 -139 15 -69 0 -197 5 -285
10 -117 8 -162 7 -172 -1 -11 -9 -14 -7 -14 10 0 21 2 21 113 16 139 -8 613
-8 727 -1 147 9 272 25 285 37 5 5 24 9 41 9 18 0 36 5 39 10 3 6 15 10 25 10
24 0 87 54 95 81 4 11 9 18 12 15 3 -3 -6 -25 -20 -49z m-1611 -47 c13 0 26
-4 29 -10 3 -5 19 -10 35 -10 43 0 80 -20 80 -43 0 -19 -1 -19 -17 -4 -10 8
-40 21 -68 28 -66 16 -122 44 -135 68 -17 32 -12 33 21 1 18 -16 42 -30 55
-30z m473 -548 c36 -34 73 -65 83 -68 10 -3 18 -10 18 -15 0 -5 6 -9 14 -9 7
0 19 -7 27 -16 26 -32 -25 -37 -130 -13 -56 13 -115 43 -166 84 -44 35 -102
112 -92 121 3 3 13 -7 23 -23 46 -72 141 -142 204 -150 63 -9 63 16 -2 85 -57
60 -98 114 -98 129 0 4 12 -8 27 -27 15 -19 57 -63 92 -98z m584 63 c17 -9 57
-21 87 -26 30 -5 82 -15 115 -22 41 -8 193 -12 473 -12 389 0 412 -1 412 -18
0 -14 -4 -16 -19 -7 -13 7 -65 8 -153 3 -164 -10 -603 0 -718 16 -125 17 -215
46 -239 77 -12 15 -21 32 -21 38 0 6 7 1 15 -11 8 -12 30 -29 48 -38z m1417
36 c0 -22 -55 -60 -103 -71 -29 -7 -62 -19 -74 -26 -21 -13 -23 -13 -23 4 0
14 15 21 72 35 48 11 81 25 97 42 28 27 31 29 31 16z m-366 -353 c-9 -18 -39
-59 -66 -91 -52 -60 -57 -87 -16 -87 32 0 122 65 158 113 17 23 30 37 30 31 0
-21 -78 -110 -120 -135 -52 -32 -145 -59 -203 -59 -49 0 -45 17 12 49 53 29
163 131 192 177 26 43 35 44 13 2z"/>
</g>
</svg>
