<?xml version="1.0" standalone="no"?>
<!DOCTYPE svg PUBLIC "-//W3C//DTD SVG 20010904//EN"
 "http://www.w3.org/TR/2001/REC-SVG-20010904/DTD/svg10.dtd">
<svg version="1.0" xmlns="http://www.w3.org/2000/svg"
 width="300.000000pt" height="295.000000pt" viewBox="0 0 300.000000 295.000000"
 preserveAspectRatio="xMidYMid meet">
<metadata>
Created by potrace 1.10, written by Peter Selinger 2001-2011
</metadata>
<g transform="translate(0.000000,295.000000) scale(0.100000,-0.100000)"
fill="#000000" stroke="none">
<path d="M2420 2914 c-8 -2 -361 -51 -785 -109 -423 -58 -824 -114 -890 -125
-291 -47 -663 -133 -682 -157 -20 -26 -34 -114 -34 -218 0 -66 30 -327 86
-765 47 -366 107 -845 135 -1065 28 -220 53 -410 56 -423 4 -20 9 -22 42 -18
20 3 154 22 297 41 143 19 406 55 585 80 179 24 363 49 410 55 119 15 382 81
525 130 155 54 345 145 453 217 48 32 126 96 174 143 l88 85 -54 109 c-105
210 -183 504 -226 851 -11 88 -31 248 -45 355 -13 107 -34 269 -45 360 -12 91
-30 227 -40 303 -11 76 -20 142 -20 147 0 10 -4 11 -30 4z m19 -121 c7 -54 21
-163 31 -243 11 -80 42 -325 70 -545 58 -466 69 -535 115 -710 44 -171 86
-288 145 -407 l48 -97 -82 -79 c-219 -213 -564 -367 -1021 -456 -44 -9 -231
-36 -415 -61 -184 -24 -483 -65 -664 -90 -181 -24 -331 -43 -333 -41 -4 4 -11
55 -129 976 -52 410 -108 849 -124 977 -17 127 -30 257 -30 289 0 63 17 172
29 193 15 24 371 106 671 155 85 14 322 48 525 76 629 85 1113 153 1146 159 4
0 12 -43 18 -96z"/>
<path d="M2839 658 c10 -29 27 -68 37 -86 22 -38 19 -42 -61 -68 -27 -9 -63
-22 -80 -29 -34 -14 -93 -34 -121 -39 -10 -2 -39 -11 -64 -19 -25 -8 -58 -18
-75 -22 -37 -9 -21 -4 -255 -65 -212 -55 -239 -63 -170 -54 143 20 573 136
764 206 l111 41 -45 93 c-50 103 -69 123 -41 42z"/>
<path d="M1978 263 c7 -3 16 -2 19 1 4 3 -2 6 -13 5 -11 0 -14 -3 -6 -6z"/>
</g>
</svg>
