<?xml version="1.0" standalone="no"?>
<!DOCTYPE svg PUBLIC "-//W3C//DTD SVG 20010904//EN"
 "http://www.w3.org/TR/2001/REC-SVG-20010904/DTD/svg10.dtd">
<svg version="1.0" xmlns="http://www.w3.org/2000/svg"
 width="300.000000pt" height="294.000000pt" viewBox="0 0 300.000000 294.000000"
 preserveAspectRatio="xMidYMid meet">
<metadata>
Created by potrace 1.10, written by Peter Selinger 2001-2011
</metadata>
<g transform="translate(0.000000,294.000000) scale(0.100000,-0.100000)"
fill="#000000" stroke="none">
<path d="M1105 2793 c-235 -33 -449 -197 -516 -397 l-17 -49 -79 -26 c-273
-89 -437 -355 -389 -631 37 -210 176 -371 384 -443 69 -24 99 -28 180 -28 54
0 110 4 125 10 25 10 28 8 46 -27 57 -111 173 -211 309 -266 74 -29 83 -31
222 -31 132 0 152 2 217 26 84 31 201 106 241 155 l29 34 49 -22 c74 -34 236
-38 324 -8 173 58 303 207 331 380 5 34 7 70 4 80 -5 15 3 24 36 41 53 26 137
109 172 169 50 87 69 210 46 309 -39 171 -198 316 -388 354 -58 12 -65 17 -82
49 -33 65 -113 136 -196 176 -74 35 -83 37 -178 37 -113 0 -178 -17 -244 -65
l-40 -30 -33 31 c-138 130 -359 199 -553 172z m230 -58 c96 -20 218 -82 292
-150 l62 -56 45 35 c72 55 127 71 241 71 90 0 106 -3 160 -29 70 -34 152 -114
179 -173 17 -37 22 -42 65 -48 279 -39 456 -275 385 -516 -29 -101 -90 -176
-196 -243 -54 -34 -56 -38 -51 -69 7 -47 -14 -142 -48 -209 -100 -199 -359
-289 -568 -197 -24 10 -47 19 -51 19 -4 0 -36 -28 -71 -62 -70 -69 -151 -116
-244 -144 -81 -24 -239 -24 -320 0 -144 43 -275 146 -334 264 -28 56 -35 63
-54 58 -233 -67 -470 20 -599 218 -140 216 -96 513 100 672 69 57 132 89 217
111 l66 18 22 65 c55 164 192 294 367 349 36 11 76 22 90 24 58 10 180 6 245
-8z"/>
<path d="M2830 1843 c-1 -109 -96 -268 -207 -344 -50 -35 -51 -49 -2 -23 59
30 143 124 178 198 18 38 30 75 27 82 -3 7 -2 15 3 18 8 5 15 96 6 96 -3 0 -5
-12 -5 -27z"/>
<path d="M136 1488 c27 -91 111 -208 188 -266 54 -41 142 -90 173 -95 10 -2
38 -9 63 -16 45 -13 229 -11 260 2 11 5 21 -5 35 -36 11 -23 54 -77 96 -119
126 -129 280 -187 467 -175 48 3 102 8 121 12 93 18 238 100 294 166 l34 39
54 -21 c30 -11 62 -18 72 -15 9 2 17 0 17 -5 0 -5 37 -9 83 -9 197 0 371 111
448 287 22 51 40 143 28 143 -5 0 -10 -9 -10 -20 -1 -11 -2 -26 -3 -32 -1 -7
-4 -16 -8 -19 -5 -3 -9 -17 -10 -32 -1 -15 -5 -27 -8 -27 -3 0 -14 -19 -25
-42 -32 -66 -123 -151 -209 -193 -66 -33 -86 -38 -168 -43 -68 -3 -110 0 -158
13 -111 29 -104 30 -172 -31 -69 -62 -194 -129 -258 -138 -23 -3 -46 -8 -51
-12 -18 -11 -220 -6 -234 6 -7 6 -17 10 -21 9 -32 -8 -147 47 -224 106 -56 43
-81 71 -135 153 l-30 47 -85 -4 c-144 -7 -180 -6 -180 2 0 4 -11 7 -24 7 -14
0 -28 5 -31 10 -3 6 -14 10 -24 10 -32 0 -139 60 -191 107 -56 50 -121 140
-151 209 -21 46 -35 60 -23 22z"/>
<path d="M1978 866 c-89 -32 -155 -128 -145 -212 17 -153 193 -240 342 -170
164 76 167 284 6 368 -60 32 -138 37 -203 14z m186 -59 c51 -29 76 -64 83
-115 7 -55 -2 -85 -38 -127 -43 -48 -122 -72 -187 -55 -120 30 -174 137 -119
235 46 82 174 112 261 62z"/>
<path d="M2323 609 c0 -122 -80 -201 -218 -214 -42 -4 -95 16 -155 59 -43 31
-49 33 -33 13 88 -120 306 -112 390 14 29 44 43 133 26 164 -8 13 -10 4 -10
-36z"/>
<path d="M2426 422 c-136 -47 -154 -218 -31 -290 33 -19 51 -22 102 -19 70 3
103 22 141 78 20 28 23 44 20 92 -4 46 -10 63 -34 88 -57 61 -122 77 -198 51z
m119 -48 c72 -34 91 -121 39 -175 -63 -66 -170 -55 -210 22 -31 60 -5 126 60
155 41 18 71 17 111 -2z"/>
<path d="M2683 197 c-23 -84 -82 -130 -165 -128 -27 0 -62 8 -78 16 -17 9 -30
11 -30 6 0 -16 67 -41 111 -41 53 0 122 33 149 70 18 25 40 120 28 120 -2 0
-9 -19 -15 -43z"/>
</g>
</svg>
